<svg xmlns="http://www.w3.org/2000/svg" xmlns:xlink="http://www.w3.org/1999/xlink" width="500" zoomAndPan="magnify" viewBox="0 0 375 374.999991" height="500" preserveAspectRatio="xMidYMid meet" version="1.0"><defs><g/></defs><path stroke-linecap="butt" transform="matrix(0.75, 0, 0, 0.75, 40.767014, 123.749992)" fill="none" stroke-linejoin="miter" d="M 48.675235 90.932308 C 41.748151 87.661475 34.914817 87.661475 34.321067 87.661475 C 28.107525 87.661475 22.133566 84.005225 22.133566 76.932308 C 22.133566 69.145849 27.628358 65.130223 34.321067 65.130223 C 40.649193 65.130223 45.998151 68.432307 46.237735 75.354182 C 46.237735 75.713557 46.862735 76.338558 47.576276 76.338558 L 62.795027 76.338558 C 63.654402 76.338558 64.279402 75.713557 64.133569 75.354182 C 63.893986 58.802098 50.992943 47.593764 34.321067 47.593764 C 18.742941 47.593764 3.998148 58.682306 3.998148 76.932308 C 3.998148 88.255225 9.737732 96.906267 19.81065 101.541684 C 26.888775 104.812518 33.456484 104.812518 34.321067 104.812518 C 39.789818 105.078143 46.50336 109.447935 46.50336 116.640643 C 46.50336 123.093769 40.768984 127.463561 34.321067 127.463561 C 34.321067 127.463561 34.321067 127.463561 34.201275 127.463561 L 34.201275 145.00002 C 34.321067 145.00002 34.321067 145.00002 34.321067 145.00002 C 49.893985 145.00002 64.518986 134.895853 64.518986 116.640643 C 64.518986 105.197934 58.899194 95.687517 48.675235 90.932308 Z M 87.649196 82.906266 L 87.649196 143.901062 C 87.649196 144.40627 88.123154 145.00002 88.982529 145.00002 L 104.680447 145.00002 C 105.539822 145.00002 106.133572 144.40627 106.133572 143.901062 L 106.133572 82.906266 Z M 68.888778 64.270848 L 124.774198 64.270848 C 125.633573 64.270848 126.107532 63.791682 126.107532 63.17189 L 126.107532 48.692722 C 126.107532 48.218764 125.633573 47.593764 124.774198 47.593764 L 68.888778 47.593764 C 68.149194 47.593764 67.555444 48.218764 67.555444 48.692722 L 67.555444 63.17189 C 67.555444 63.791682 68.149194 64.270848 68.888778 64.270848 Z M 184.326285 66.229182 L 174.097118 80.468766 L 150.946075 47.953139 C 150.706491 47.713556 150.112741 47.593764 149.727325 47.593764 L 130.492948 47.593764 C 129.154407 47.593764 128.680448 48.572931 129.274198 49.437514 C 141.107533 65.994807 153.143992 82.5521 164.826284 99.223976 L 164.826284 143.901062 C 164.826284 144.40627 165.331492 145.00002 166.164826 145.00002 L 182.12316 145.00002 C 182.836702 145.00002 183.461702 144.40627 183.461702 143.901062 L 183.461702 99.223976 L 206.946078 66.229182 Z M 285.133584 65.489598 L 285.133584 48.692722 C 285.133584 48.218764 284.628375 47.593764 283.769 47.593764 L 267.951291 47.593764 C 243.727331 47.593764 210.852329 54.666681 210.852329 96.312517 C 210.852329 139.53127 244.086706 145.00002 267.951291 145.00002 L 283.769 145.00002 C 284.628375 145.00002 285.133584 144.40627 285.133584 143.901062 L 285.133584 84.244808 L 247.742956 84.244808 L 247.742956 102.880226 L 266.498166 102.880226 L 266.498166 127.223978 C 245.305456 128.322936 229.607538 119.437519 229.607538 96.312517 C 229.607538 66.229182 254.696082 65.010432 266.498166 65.489598 Z M 344.894004 96.552101 C 344.894004 91.437517 340.883587 87.276058 335.769004 87.276058 C 330.659628 87.276058 326.644003 91.437517 326.644003 96.552101 C 326.644003 101.541684 330.659628 105.677101 335.769004 105.677101 C 340.883587 105.677101 344.894004 101.541684 344.894004 96.552101 Z M 382.644007 96.192725 C 382.644007 71.937516 366.951297 47.593764 335.888795 47.593764 C 304.352335 47.593764 288.894001 71.937516 288.894001 96.192725 C 288.894001 120.536477 304.352335 145.00002 335.888795 145.00002 C 366.951297 145.00002 382.644007 120.536477 382.644007 96.192725 Z M 364.394005 96.552101 C 364.394005 112.24481 354.763797 127.968769 335.888795 127.968769 C 316.774211 127.968769 307.263793 112.24481 307.263793 96.552101 C 307.263793 80.588558 316.774211 64.776057 335.888795 64.776057 C 354.763797 64.776057 364.394005 80.588558 364.394005 96.552101 Z M 364.394005 96.552101 " stroke="#ffffff" stroke-width="9.13185" stroke-opacity="1" stroke-miterlimit="4"/><g fill="#000000" fill-opacity="1"><g transform="translate(43.767014, 232.499985)"><g><path d="M 33.511719 -40.542969 C 28.308594 -43.007812 23.195312 -43.007812 22.738281 -43.007812 C 18.078125 -43.007812 13.605469 -45.746094 13.605469 -51.042969 C 13.605469 -56.886719 17.714844 -59.902344 22.738281 -59.902344 C 27.484375 -59.902344 31.503906 -57.4375 31.683594 -52.230469 C 31.683594 -51.957031 32.140625 -51.5 32.691406 -51.5 L 44.105469 -51.5 C 44.742188 -51.5 45.199219 -51.957031 45.109375 -52.230469 C 44.925781 -64.648438 35.246094 -73.050781 22.738281 -73.050781 C 11.046875 -73.050781 0 -64.742188 0 -51.042969 C 0 -42.550781 4.292969 -36.070312 11.871094 -32.597656 C 17.167969 -30.132812 22.097656 -30.132812 22.738281 -30.132812 C 26.847656 -29.949219 31.867188 -26.664062 31.867188 -21.277344 C 31.867188 -16.4375 27.578125 -13.148438 22.738281 -13.148438 C 22.738281 -13.148438 22.738281 -13.148438 22.644531 -13.148438 L 22.644531 0 C 22.738281 0 22.738281 0 22.738281 0 C 34.425781 0 45.382812 -7.578125 45.382812 -21.277344 C 45.382812 -29.859375 41.183594 -36.980469 33.511719 -40.542969 Z M 33.511719 -40.542969 "/></g></g></g><g fill="#000000" fill-opacity="1"><g transform="translate(91.432179, 232.499985)"><g><path d="M 15.066406 -46.570312 L 15.066406 -0.820312 C 15.066406 -0.457031 15.433594 0 16.070312 0 L 27.851562 0 C 28.488281 0 28.945312 -0.457031 28.945312 -0.820312 L 28.945312 -46.570312 Z M 1.003906 -60.539062 L 42.917969 -60.539062 C 43.554688 -60.539062 43.921875 -60.90625 43.921875 -61.363281 L 43.921875 -72.226562 C 43.921875 -72.59375 43.554688 -73.050781 42.917969 -73.050781 L 1.003906 -73.050781 C 0.457031 -73.050781 0 -72.59375 0 -72.226562 L 0 -61.363281 C 0 -60.90625 0.457031 -60.539062 1.003906 -60.539062 Z M 1.003906 -60.539062 "/></g></g></g><g fill="#000000" fill-opacity="1"><g transform="translate(137.545033, 232.499985)"><g><path d="M 41.457031 -59.078125 L 33.785156 -48.394531 L 16.4375 -72.777344 C 16.253906 -72.957031 15.796875 -73.050781 15.523438 -73.050781 L 1.097656 -73.050781 C 0.0898438 -73.050781 -0.273438 -72.320312 0.183594 -71.679688 C 9.039062 -59.261719 18.078125 -46.84375 26.847656 -34.332031 L 26.847656 -0.820312 C 26.847656 -0.457031 27.210938 0 27.851562 0 L 39.8125 0 C 40.359375 0 40.816406 -0.457031 40.816406 -0.820312 L 40.816406 -34.332031 L 58.441406 -59.078125 Z M 41.457031 -59.078125 "/></g></g></g><g fill="#000000" fill-opacity="1"><g transform="translate(198.907094, 232.499985)"><g><path d="M 55.699219 -59.628906 L 55.699219 -72.226562 C 55.699219 -72.59375 55.335938 -73.050781 54.695312 -73.050781 L 42.824219 -73.050781 C 24.65625 -73.050781 0 -67.753906 0 -36.523438 C 0 -4.109375 24.929688 0 42.824219 0 L 54.695312 0 C 55.335938 0 55.699219 -0.457031 55.699219 -0.820312 L 55.699219 -45.566406 L 27.667969 -45.566406 L 27.667969 -31.59375 L 41.730469 -31.59375 L 41.730469 -13.332031 C 25.839844 -12.511719 14.0625 -19.175781 14.0625 -36.523438 C 14.0625 -59.078125 32.871094 -59.992188 41.730469 -59.628906 Z M 55.699219 -59.628906 "/></g></g></g><g fill="#000000" fill-opacity="1"><g transform="translate(257.438447, 232.499985)"><g><path d="M 42.003906 -36.34375 C 42.003906 -40.175781 38.992188 -43.28125 35.15625 -43.28125 C 31.320312 -43.28125 28.308594 -40.175781 28.308594 -36.34375 C 28.308594 -32.597656 31.320312 -29.492188 35.15625 -29.492188 C 38.992188 -29.492188 42.003906 -32.597656 42.003906 -36.34375 Z M 70.3125 -36.617188 C 70.3125 -54.789062 58.53125 -73.050781 35.246094 -73.050781 C 11.597656 -73.050781 0 -54.789062 0 -36.617188 C 0 -18.355469 11.597656 0 35.246094 0 C 58.53125 0 70.3125 -18.355469 70.3125 -36.617188 Z M 56.613281 -36.34375 C 56.613281 -24.5625 49.398438 -12.785156 35.246094 -12.785156 C 20.910156 -12.785156 13.789062 -24.5625 13.789062 -36.34375 C 13.789062 -48.304688 20.910156 -60.175781 35.246094 -60.175781 C 49.398438 -60.175781 56.613281 -48.304688 56.613281 -36.34375 Z M 56.613281 -36.34375 "/></g></g></g></svg>