<svg xmlns="http://www.w3.org/2000/svg" xmlns:xlink="http://www.w3.org/1999/xlink" width="500" zoomAndPan="magnify" viewBox="0 0 375 374.999991" height="500" preserveAspectRatio="xMidYMid meet" version="1.0"><defs><g/><clipPath id="9e3527c3f3"><path d="M 37.5 37.5 L 337.5 37.5 L 337.5 337.5 L 37.5 337.5 Z M 37.5 37.5 " clip-rule="nonzero"/></clipPath><clipPath id="04f69623f7"><path d="M 84.980469 84.980469 L 289.730469 84.980469 L 289.730469 289.730469 L 84.980469 289.730469 Z M 84.980469 84.980469 " clip-rule="nonzero"/></clipPath><clipPath id="64bcf1f84e"><path d="M 113.53125 112.5 L 261.28125 112.5 L 261.28125 262.5 L 113.53125 262.5 Z M 113.53125 112.5 " clip-rule="nonzero"/></clipPath><clipPath id="3d53e63158"><path d="M 296.746094 171.816406 L 329.746094 171.816406 L 329.746094 203.316406 L 296.746094 203.316406 Z M 296.746094 171.816406 " clip-rule="nonzero"/></clipPath><clipPath id="9a7f68b284"><path d="M 45.492188 171.816406 L 78.492188 171.816406 L 78.492188 203.316406 L 45.492188 203.316406 Z M 45.492188 171.816406 " clip-rule="nonzero"/></clipPath></defs><g clip-path="url(#9e3527c3f3)"><path fill="#ffffff" d="M 187.5 337.5 C 104.816406 337.5 37.5 270.183594 37.5 187.5 C 37.5 104.816406 104.816406 37.5 187.5 37.5 C 270.183594 37.5 337.5 104.816406 337.5 187.5 C 337.5 270.183594 270.183594 337.5 187.5 337.5 Z M 187.5 39.714844 C 105.996094 39.714844 39.714844 105.996094 39.714844 187.5 C 39.714844 269.003906 105.996094 335.285156 187.5 335.285156 C 269.003906 335.285156 335.285156 269.003906 335.285156 187.5 C 335.285156 105.996094 269.003906 39.714844 187.5 39.714844 Z M 187.5 39.714844 " fill-opacity="1" fill-rule="nonzero"/></g><g clip-path="url(#04f69623f7)"><path fill="#ffffff" d="M 187.496094 290.011719 C 130.984375 290.011719 84.980469 244.003906 84.980469 187.496094 C 84.980469 130.984375 130.984375 84.980469 187.496094 84.980469 C 244.003906 84.980469 290.011719 130.984375 290.011719 187.496094 C 290.011719 244.003906 244.003906 290.011719 187.496094 290.011719 Z M 187.496094 86.496094 C 131.792969 86.496094 86.496094 131.792969 86.496094 187.496094 C 86.496094 243.195312 131.792969 288.496094 187.496094 288.496094 C 243.195312 288.496094 288.496094 243.195312 288.496094 187.496094 C 288.496094 131.792969 243.195312 86.496094 187.496094 86.496094 Z M 187.496094 86.496094 " fill-opacity="1" fill-rule="nonzero"/></g><g fill="#ffffff" fill-opacity="1"><g transform="translate(109.044937, 300.089224)"><g><path d="M 23.78125 -13.703125 L 20.25 11.65625 L 15.21875 8.765625 L 16.0625 3.765625 L 8.234375 -0.734375 L 4.34375 2.5 L -0.703125 -0.40625 L 19.453125 -16.203125 Z M 16.828125 -1.265625 L 17.984375 -8.578125 L 17.9375 -8.609375 L 12.1875 -3.9375 Z M 16.828125 -1.265625 "/></g></g></g><g fill="#ffffff" fill-opacity="1"><g transform="translate(129.216056, 311.60032)"><g><path d="M 15.171875 0.453125 C 15.941406 0.742188 16.734375 0.90625 17.546875 0.9375 C 18.359375 0.976562 18.976562 0.953125 19.40625 0.859375 L 20.0625 0.71875 L 20.59375 5.828125 C 20.5 5.859375 20.375 5.894531 20.21875 5.9375 C 20.0625 5.988281 19.707031 6.046875 19.15625 6.109375 C 18.613281 6.171875 18.046875 6.191406 17.453125 6.171875 C 16.859375 6.160156 16.109375 6.070312 15.203125 5.90625 C 14.304688 5.738281 13.410156 5.484375 12.515625 5.140625 C 10.453125 4.367188 8.679688 3.125 7.203125 1.40625 C 5.734375 -0.300781 4.765625 -2.25 4.296875 -4.4375 C 3.828125 -6.632812 3.976562 -8.769531 4.75 -10.84375 C 5.332031 -12.40625 6.226562 -13.78125 7.4375 -14.96875 C 8.65625 -16.15625 10.003906 -17.054688 11.484375 -17.671875 C 12.960938 -18.285156 14.550781 -18.617188 16.25 -18.671875 C 17.957031 -18.734375 19.585938 -18.476562 21.140625 -17.90625 C 22.578125 -17.363281 23.835938 -16.691406 24.921875 -15.890625 C 26.003906 -15.097656 26.734375 -14.441406 27.109375 -13.921875 L 27.6875 -13.125 L 23.921875 -9.609375 C 23.835938 -9.773438 23.695312 -9.976562 23.5 -10.21875 C 23.300781 -10.46875 22.867188 -10.859375 22.203125 -11.390625 C 21.546875 -11.929688 20.832031 -12.347656 20.0625 -12.640625 C 18.84375 -13.097656 17.671875 -13.304688 16.546875 -13.265625 C 15.421875 -13.234375 14.457031 -13 13.65625 -12.5625 C 12.851562 -12.125 12.160156 -11.585938 11.578125 -10.953125 C 11.003906 -10.328125 10.578125 -9.628906 10.296875 -8.859375 C 9.660156 -7.171875 9.722656 -5.414062 10.484375 -3.59375 C 11.253906 -1.769531 12.816406 -0.421875 15.171875 0.453125 Z M 15.171875 0.453125 "/></g></g></g><g fill="#ffffff" fill-opacity="1"><g transform="translate(150.145171, 319.407599)"><g><path d="M 18.09375 -20.671875 L 22.9375 4.484375 L 17.234375 3.375 L 16.40625 -1.625 L 7.546875 -3.359375 L 4.921875 0.96875 L -0.796875 -0.15625 L 13.1875 -21.625 Z M 15.515625 -6.640625 L 14.265625 -13.921875 L 14.203125 -13.9375 L 10.28125 -7.671875 Z M 15.515625 -6.640625 "/></g></g></g><g fill="#ffffff" fill-opacity="1"><g transform="translate(172.942437, 323.762591)"><g><path d="M 2.453125 -23.6875 L 9.328125 -23.46875 C 12.628906 -23.375 15.410156 -22.160156 17.671875 -19.828125 C 19.941406 -17.503906 21.023438 -14.648438 20.921875 -11.265625 C 20.816406 -7.847656 19.566406 -5.046875 17.171875 -2.859375 C 14.773438 -0.679688 11.921875 0.359375 8.609375 0.265625 L 1.734375 0.046875 Z M 7.28125 -4.609375 L 8.109375 -4.578125 C 10.085938 -4.523438 11.722656 -5.144531 13.015625 -6.4375 C 14.316406 -7.726562 15.007812 -9.382812 15.09375 -11.40625 C 15.15625 -13.414062 14.578125 -15.109375 13.359375 -16.484375 C 12.148438 -17.867188 10.546875 -18.585938 8.546875 -18.640625 L 7.71875 -18.671875 Z M 7.28125 -4.609375 "/></g></g></g><g fill="#ffffff" fill-opacity="1"><g transform="translate(194.637942, 324.230995)"><g><path d="M 12.609375 -25.296875 L 13.125 -20.578125 L 5 -19.671875 L 5.53125 -14.96875 L 13.3125 -15.828125 L 13.828125 -11.109375 L 6.046875 -10.25 L 6.578125 -5.5 L 14.703125 -6.40625 L 15.21875 -1.6875 L 1.71875 -0.1875 L -0.890625 -23.796875 Z M 12.609375 -25.296875 "/></g></g></g><g fill="#ffffff" fill-opacity="1"><g transform="translate(211.956744, 322.695127)"><g><path d="M 20.5625 -5.765625 L 15.6875 -19.03125 L 15.546875 -18.984375 L 14.625 -4.25 L 11.515625 -3.375 L 3.078125 -15.484375 L 2.9375 -15.453125 L 5.65625 -1.59375 L 0.4375 -0.125 L -3.90625 -23.578125 L 1.625 -25.125 L 10.390625 -13.34375 L 11.765625 -27.96875 L 17.3125 -29.53125 L 25.765625 -7.21875 Z M 20.5625 -5.765625 "/></g></g></g><g fill="#ffffff" fill-opacity="1"><g transform="translate(238.358981, 314.629294)"><g><path d="M -2.828125 -24.640625 L 6.5625 -2.828125 L 1.59375 -0.6875 L -7.796875 -22.5 Z M -2.828125 -24.640625 "/></g></g></g><g fill="#ffffff" fill-opacity="1"><g transform="translate(246.928808, 311.349653)"><g><path d="M 0.09375 -27.453125 L 20.25 -11.65625 L 15.21875 -8.765625 L 11.3125 -11.984375 L 3.484375 -7.484375 L 4.34375 -2.5 L -0.703125 0.40625 L -4.234375 -24.953125 Z M 7.359375 -15.203125 L 1.609375 -19.859375 L 1.5625 -19.828125 L 2.71875 -12.53125 Z M 7.359375 -15.203125 "/></g></g></g><g fill="#ffffff" fill-opacity="1"><g transform="translate(118.997644, 94.974121)"><g><path d="M -10.96875 -21.125 L -3.609375 -25.671875 C -1.546875 -26.929688 0.445312 -27.421875 2.375 -27.140625 C 4.300781 -26.867188 5.882812 -25.71875 7.125 -23.6875 C 8.375 -21.664062 8.707031 -19.679688 8.125 -17.734375 C 7.539062 -15.785156 6.238281 -14.191406 4.21875 -12.953125 L 1.453125 -11.25 L 6.078125 -3.75 L 1.484375 -0.90625 Z M -0.796875 -14.921875 L 0.5 -15.703125 C 1.519531 -16.335938 2.234375 -17.066406 2.640625 -17.890625 C 3.046875 -18.722656 2.957031 -19.613281 2.375 -20.5625 C 1.789062 -21.519531 1.035156 -22 0.109375 -22 C -0.816406 -22.007812 -1.789062 -21.695312 -2.8125 -21.0625 L -4.109375 -20.28125 Z M -0.796875 -14.921875 "/></g></g></g><g fill="#ffffff" fill-opacity="1"><g transform="translate(134.735122, 85.574825)"><g><path d="M -3.59375 -24.546875 L 6.46875 -3.03125 L 1.578125 -0.734375 L -8.484375 -22.25 Z M -3.59375 -24.546875 "/></g></g></g><g fill="#ffffff" fill-opacity="1"><g transform="translate(141.771008, 81.757706)"><g><path d="M 13.359375 -29.234375 L 7.984375 -7.546875 L 18.4375 -10.90625 L 19.890625 -6.390625 L 0.4375 -0.140625 L 5.8125 -21.828125 L -3.796875 -18.75 L -5.25 -23.265625 Z M 13.359375 -29.234375 "/></g></g></g><g fill="#ffffff" fill-opacity="1"><g transform="translate(161.611933, 75.260036)"><g><path d="M 18.390625 -26.359375 L 9.203125 -5.984375 L 20.09375 -7.421875 L 20.71875 -2.71875 L 0.453125 -0.0625 L 9.625 -20.4375 L -0.359375 -19.125 L -0.984375 -23.828125 Z M 18.390625 -26.359375 "/></g></g></g><g fill="#ffffff" fill-opacity="1"><g transform="translate(182.285627, 72.412659)"><g><path d="M 15 -23 L 23.34375 1.21875 L 17.53125 0.90625 L 16.03125 -3.921875 L 7 -4.390625 L 5.015625 0.265625 L -0.8125 -0.046875 L 10 -23.265625 Z M 14.4375 -8.765625 L 12.15625 -15.796875 L 12.09375 -15.8125 L 9.09375 -9.03125 Z M 14.4375 -8.765625 "/></g></g></g><g fill="#ffffff" fill-opacity="1"><g transform="translate(203.658045, 73.651619)"><g><path d="M 4.265625 -18.515625 L 5.28125 -23.15625 L 21.578125 -19.609375 L 20.5625 -14.96875 L 15.0625 -16.171875 L 11.03125 2.390625 L 5.734375 1.25 L 9.765625 -17.3125 Z M 4.265625 -18.515625 "/></g></g></g><g fill="#ffffff" fill-opacity="1"><g transform="translate(219.46386, 77.017368)"><g><path d="M 6.8125 -17.75 L 8.453125 -22.203125 L 24.109375 -16.40625 L 22.46875 -11.953125 L 17.171875 -13.921875 L 10.578125 3.90625 L 5.515625 2.03125 L 12.109375 -15.796875 Z M 6.8125 -17.75 "/></g></g></g><g fill="#ffffff" fill-opacity="1"><g transform="translate(234.606803, 82.133849)"><g><path d="M 6.546875 -9.953125 C 8.265625 -12.910156 10.734375 -14.828125 13.953125 -15.703125 C 17.179688 -16.578125 20.222656 -16.1875 23.078125 -14.53125 C 25.941406 -12.863281 27.78125 -10.421875 28.59375 -7.203125 C 29.40625 -3.992188 28.945312 -0.898438 27.21875 2.078125 C 25.46875 5.085938 23.007812 7.039062 19.84375 7.9375 C 16.6875 8.84375 13.640625 8.441406 10.703125 6.734375 C 7.703125 4.984375 5.816406 2.523438 5.046875 -0.640625 C 4.273438 -3.804688 4.773438 -6.910156 6.546875 -9.953125 Z M 11.609375 -7.015625 C 10.972656 -5.929688 10.5625 -4.847656 10.375 -3.765625 C 10.1875 -2.679688 10.328125 -1.59375 10.796875 -0.5 C 11.273438 0.59375 12.125 1.492188 13.34375 2.203125 C 15.082031 3.210938 16.738281 3.378906 18.3125 2.703125 C 19.894531 2.023438 21.179688 0.835938 22.171875 -0.859375 C 23.140625 -2.523438 23.519531 -4.222656 23.3125 -5.953125 C 23.113281 -7.679688 22.164062 -9.039062 20.46875 -10.03125 C 18.78125 -11.019531 17.125 -11.179688 15.5 -10.515625 C 13.875 -9.847656 12.578125 -8.679688 11.609375 -7.015625 Z M 11.609375 -7.015625 "/></g></g></g><g clip-path="url(#64bcf1f84e)"><path fill="#ffffff" d="M 176.523438 141.1875 C 178.257812 143.023438 179.992188 144.859375 181.726562 146.695312 C 181.949219 146.929688 182.179688 147.179688 182.242188 147.496094 C 182.300781 147.789062 182.207031 148.085938 182.210938 148.382812 C 182.222656 149.050781 182.71875 149.601562 183.1875 150.082031 C 183.769531 150.679688 184.351562 151.28125 184.9375 151.878906 C 185.308594 152.261719 185.691406 152.664062 185.839844 153.175781 C 186.042969 153.863281 185.777344 154.605469 185.863281 155.320312 C 185.921875 155.816406 186.148438 156.273438 186.359375 156.722656 C 187.597656 159.347656 188.53125 162.113281 189.132812 164.953125 C 189.273438 165.628906 189.386719 166.378906 189.023438 166.96875 C 188.699219 167.492188 188.078125 167.742188 187.585938 168.117188 C 187.09375 168.488281 186.699219 169.191406 187.046875 169.703125 C 187.203125 169.929688 187.464844 170.054688 187.722656 170.160156 C 190.410156 171.292969 193.34375 171.679688 196.238281 172.054688 C 196.75 172.121094 197.269531 172.1875 197.78125 172.128906 C 198.683594 172.023438 199.535156 171.515625 200.050781 170.765625 C 202.167969 167.691406 205.1875 165.332031 208.847656 164.582031 C 213.4375 163.644531 218.285156 165.328125 222.847656 164.265625 C 224.769531 161.898438 227.40625 159.839844 230.273438 158.796875 C 232.28125 158.070312 234.527344 157.730469 236.539062 158.4375 C 237.03125 158.605469 237.511719 158.839844 238.03125 158.867188 C 238.648438 158.898438 239.234375 158.632812 239.792969 158.375 C 240.429688 158.078125 241.066406 157.785156 241.703125 157.492188 C 240.882812 153.542969 240.027344 149.25 240.160156 145.222656 C 240.195312 144.199219 240.289062 143.175781 240.246094 142.15625 C 240.222656 141.589844 240.15625 141.027344 240.074219 140.46875 C 239.730469 138.097656 239.132812 135.757812 238.285156 133.515625 C 237.351562 131.035156 236.121094 128.679688 234.894531 126.332031 C 234.613281 125.789062 233.65625 125.691406 233.042969 125.726562 C 232.429688 125.761719 231.832031 125.933594 231.222656 125.988281 C 228.820312 126.199219 226.628906 124.554688 224.230469 124.351562 C 223.160156 124.257812 222.085938 124.457031 221.027344 124.648438 C 220.796875 124.691406 220.550781 124.730469 220.332031 124.640625 C 220.085938 124.546875 219.925781 124.3125 219.792969 124.085938 C 219.523438 123.628906 219.285156 123.152344 219.089844 122.65625 C 218.960938 122.339844 218.859375 121.949219 219.066406 121.675781 C 219.164062 121.542969 219.324219 121.460938 219.425781 121.328125 C 219.691406 120.980469 219.449219 120.476562 219.519531 120.042969 C 219.5625 119.78125 219.71875 119.554688 219.863281 119.335938 C 220.710938 118.050781 221.390625 116.652344 221.867188 115.1875 C 222.070312 114.570312 222.25 113.921875 222.671875 113.433594 C 223.332031 112.679688 224.429688 112.480469 225.433594 112.5 C 227.507812 112.539062 229.5625 113.320312 231.136719 114.667969 C 231.5625 115.027344 231.953125 115.429688 232.371094 115.796875 C 232.734375 116.113281 233.117188 116.402344 233.5 116.691406 C 234.410156 117.378906 235.320312 118.0625 236.230469 118.75 C 236.921875 119.273438 237.613281 119.796875 238.304688 120.316406 C 239.183594 120.980469 240.0625 121.644531 241.023438 122.179688 C 242.726562 123.132812 243.070312 125.207031 244.058594 126.890625 C 244.660156 127.917969 245.394531 128.625 246.089844 129.589844 C 247.378906 131.382812 248.667969 133.175781 249.957031 134.96875 C 250.8125 136.160156 251.667969 137.347656 252.476562 138.570312 C 256.832031 145.140625 259.8125 152.613281 261.183594 160.375 C 261.347656 161.316406 260.875 162.234375 260.34375 163.027344 C 259.804688 163.824219 259.078125 164.46875 258.375 165.125 C 254.796875 168.457031 251.636719 172.21875 248.070312 175.570312 C 244.507812 178.917969 240.433594 181.902344 235.730469 183.246094 C 231.527344 184.445312 226.8125 184.351562 223.199219 186.8125 C 218.453125 190.039062 220.082031 197.765625 217.949219 203.089844 C 217.007812 205.441406 215.695312 207.644531 214.949219 210.066406 C 213.484375 214.804688 212.480469 219.722656 210.40625 224.226562 C 209.644531 225.886719 208.769531 227.507812 208.28125 229.265625 C 207.320312 232.71875 207.929688 236.402344 208.796875 239.878906 C 209.667969 243.355469 210.804688 246.8125 210.890625 250.394531 C 210.992188 254.5625 213.183594 258.46875 214.328125 262.476562 L 159.976562 262.476562 C 160.917969 259.585938 161.945312 256.980469 163.191406 254.207031 C 163.558594 253.390625 163.941406 252.570312 164.121094 251.695312 C 164.289062 250.871094 164.273438 250.019531 164.328125 249.179688 C 164.617188 244.78125 166.832031 240.558594 166.375 236.171875 C 166.207031 234.554688 166.472656 232.953125 165.9375 231.417969 C 165.402344 229.882812 164.589844 228.460938 163.78125 227.054688 C 161.757812 223.53125 159.703125 220 157.105469 216.878906 C 156.414062 217.796875 155.605469 218.726562 154.914062 219.644531 C 154.21875 220.570312 153.523438 221.492188 152.785156 222.386719 C 149.8125 225.976562 146.148438 229.035156 141.953125 231.070312 C 139.535156 232.238281 136.945312 233.070312 134.652344 234.472656 C 133.566406 235.136719 132.542969 235.929688 131.367188 236.425781 C 130.035156 236.988281 128.570312 237.140625 127.128906 237.183594 C 124.863281 237.253906 122.476562 237.035156 120.589844 235.78125 C 119.84375 235.289062 119.527344 234.394531 119.125 233.597656 C 118.601562 232.554688 118.078125 231.511719 117.550781 230.46875 C 117.0625 229.496094 116.574219 228.523438 116.167969 227.515625 C 114.964844 224.53125 114.511719 221.300781 114.203125 218.097656 C 113.953125 215.5 113.789062 212.894531 113.714844 210.285156 C 113.617188 206.980469 115.019531 203.632812 115.285156 200.332031 C 115.496094 197.679688 115.082031 194.933594 115.886719 192.398438 C 116.527344 190.382812 117.304688 188.234375 118.375 186.410156 C 120.625 182.589844 122.875 178.765625 125.121094 174.945312 C 125.28125 174.671875 125.449219 174.390625 125.691406 174.1875 C 126.203125 173.761719 126.960938 173.757812 127.59375 173.96875 C 128.226562 174.175781 128.78125 174.566406 129.371094 174.878906 C 130.84375 175.648438 132.546875 175.933594 133.964844 176.796875 C 134.191406 176.9375 134.417969 177.097656 134.542969 177.332031 C 134.679688 177.582031 134.6875 177.878906 134.761719 178.152344 C 134.921875 178.738281 135.382812 179.183594 135.738281 179.671875 C 136.097656 180.164062 136.359375 180.832031 136.074219 181.367188 C 135.957031 181.585938 135.765625 181.75 135.570312 181.90625 C 134.683594 182.609375 133.683594 183.199219 133.007812 184.101562 C 132.648438 184.582031 132.390625 185.132812 132.046875 185.625 C 130.253906 188.175781 126.359375 188.730469 124.878906 191.476562 C 124.320312 192.523438 124.199219 193.746094 124.179688 194.929688 C 124.140625 197.351562 124.476562 199.777344 125.179688 202.09375 C 125.707031 203.84375 126.855469 205.183594 127.808594 206.742188 C 128.265625 207.492188 128.738281 208.238281 129.277344 208.929688 C 129.695312 209.460938 130.15625 209.964844 130.523438 210.535156 C 130.988281 211.25 131.292969 212.050781 131.589844 212.847656 C 132.152344 211.777344 132.453125 210.550781 132.824219 209.398438 C 133.378906 207.691406 134.507812 206.210938 135.828125 204.992188 C 137.148438 203.773438 138.671875 202.796875 140.1875 201.832031 C 140.117188 199.453125 141.261719 197.222656 142.324219 195.09375 C 142.992188 193.761719 143.71875 192.460938 144.601562 191.261719 C 148.441406 186.058594 155.296875 183.261719 161.679688 184.292969 C 162.203125 184.375 162.820312 184.113281 163.195312 183.742188 C 164.632812 182.324219 166.066406 180.90625 167.503906 179.488281 C 167.972656 179.023438 168.449219 178.554688 168.785156 177.984375 C 169.503906 176.777344 169.507812 175.253906 169.109375 173.910156 C 168.714844 172.5625 167.953125 171.359375 167.1875 170.183594 C 166.683594 169.40625 166.160156 168.617188 165.425781 168.054688 C 164.941406 167.683594 164.382812 167.425781 163.859375 167.113281 C 161.828125 165.902344 160.273438 163.894531 158.046875 163.105469 C 155.023438 162.035156 152.699219 159.066406 151.582031 156.054688 C 151.140625 154.855469 150.964844 153.558594 151.070312 152.285156 C 151.144531 151.398438 151.355469 150.53125 151.5625 149.664062 C 151.855469 148.449219 152.148438 147.234375 152.441406 146.019531 C 152.554688 145.554688 152.667969 145.085938 152.875 144.65625 C 153.304688 143.773438 154.097656 143.128906 154.867188 142.515625 C 156.558594 141.175781 158.273438 139.84375 160.164062 138.804688 C 162.054688 137.761719 164.144531 137.011719 166.300781 136.910156 C 167.355469 136.859375 168.414062 136.964844 169.460938 137.113281 C 170.796875 137.300781 172.140625 137.558594 173.363281 138.132812 C 174.582031 138.703125 175.597656 140.207031 176.523438 141.1875 Z M 176.523438 141.1875 " fill-opacity="1" fill-rule="nonzero"/></g><g clip-path="url(#3d53e63158)"><path fill="#ffffff" d="M 313.113281 195.8125 L 323.230469 203.175781 L 319.355469 191.285156 L 329.472656 184.085938 L 317.066406 184.085938 L 313.113281 171.816406 L 309.160156 184.085938 L 296.75 184.085938 L 306.867188 191.285156 L 303.007812 203.175781 Z M 313.113281 195.8125 " fill-opacity="1" fill-rule="nonzero"/></g><g clip-path="url(#9a7f68b284)"><path fill="#ffffff" d="M 61.859375 195.8125 L 71.972656 203.175781 L 68.101562 191.285156 L 78.21875 184.085938 L 65.8125 184.085938 L 61.859375 171.816406 L 57.902344 184.085938 L 45.496094 184.085938 L 55.613281 191.285156 L 51.753906 203.175781 Z M 61.859375 195.8125 " fill-opacity="1" fill-rule="nonzero"/></g></svg>